<svg xmlns="http://www.w3.org/2000/svg" version="1.1" viewBox="-5.0 -10.0 110.0 135.0">
 <path d="m89.117 85.762h-1.9375v-38.906c0-0.25781-0.15625-0.49219-0.39453-0.58984l-28.824-11.992v-10.852c0-0.24609-0.14063-0.47266-0.36719-0.57812l-20.828-9.8359c-0.035156-0.015624-0.074219-0.019531-0.11328-0.027343-0.03125-0.007813-0.0625-0.019531-0.09375-0.023438-0.078125-0.007812-0.15234 0-0.22266 0.019531-0.015626 0.003907-0.027344 0-0.042969 0.003907l-22.852 7.5195c-0.26172 0.085938-0.4375 0.33203-0.4375 0.60547v64.652h-2.1211c-0.35156 0-0.63672 0.28516-0.63672 0.63672 0 0.35156 0.28516 0.63672 0.63672 0.63672h78.23c0.35156 0 0.63672-0.28516 0.63672-0.63672 0-0.35156-0.28516-0.63672-0.63672-0.63672zm-3.2148 0h-34.883v-52.992l6.0547 2.5195 28.824 11.992v38.48zm-48.766-48.578 12.609-4.4648v53.047h-12.609zm19.547-3.4375-6.0586-2.5195c-0.03125-0.011718-0.066406-0.011718-0.097656-0.019531-0.035156-0.007812-0.066406-0.015625-0.10156-0.019531-0.070312-0.003906-0.13672 0.003906-0.20703 0.019531-0.019531 0.003907-0.039062 0-0.054688 0.003907l-13.031 4.6172 0.003907-21.23 19.551 9.2305v9.9141zm-42.398-12.172 21.574-7.1016v71.289h-21.574zm66.289 53.199-23.18-2.6211c-0.17969-0.019532-0.36328 0.039062-0.49609 0.16016-0.13672 0.12109-0.21484 0.29297-0.21484 0.47656v2.4727c0 0.32422 0.24219 0.59766 0.56641 0.63281l23.18 2.6211c0.023437 0.003906 0.046874 0.003906 0.070312 0.003906 0.15625 0 0.30859-0.058593 0.42578-0.16406 0.13672-0.12109 0.21484-0.29297 0.21484-0.47656v-2.4727c0-0.32422-0.24219-0.59766-0.56641-0.63281zm-0.70703 2.3945-21.902-2.4766v-1.1875l21.902 2.4766zm0.77344-9.8008-23.18-5.0586c-0.1875-0.039063-0.38672 0.003906-0.53516 0.125-0.15234 0.12109-0.23828 0.30469-0.23828 0.49609v2.4727c0 0.30078 0.21094 0.55859 0.50391 0.625l23.18 5.0586c0.046875 0.011718 0.089844 0.015624 0.13672 0.015624 0.14453 0 0.28516-0.050781 0.40234-0.14062 0.15234-0.12109 0.23828-0.30469 0.23828-0.49609v-2.4727c0-0.30078-0.21094-0.55859-0.50391-0.625zm-0.77344 2.3047-21.902-4.7812v-1.1641l21.902 4.7812zm0.80469-9.7148-23.18-6.3516c-0.19141-0.054688-0.39844-0.011719-0.55469 0.10938-0.16016 0.12109-0.25 0.30859-0.25 0.50781v2.4727c0 0.28906 0.19141 0.53906 0.46875 0.61719l23.18 6.3516c0.054687 0.015626 0.11328 0.023438 0.16797 0.023438 0.13672 0 0.27344-0.046875 0.38672-0.12891 0.16016-0.12109 0.25-0.30859 0.25-0.50781v-2.4727c0-0.28906-0.19141-0.53906-0.46875-0.61719zm-0.80469 2.2539-21.902-6v-1.1484l21.902 6zm-22.914-17.492c-0.16797 0.12109-0.26562 0.3125-0.26562 0.51953v2.4727c0 0.27344 0.17188 0.51562 0.43359 0.60547l23.18 7.918c0.066407 0.023437 0.13672 0.035156 0.20703 0.035156 0.13281 0 0.26172-0.039062 0.37109-0.11719 0.16797-0.12109 0.26562-0.3125 0.26562-0.51953v-2.4727c0-0.27344-0.17188-0.51562-0.43359-0.60547l-23.18-7.918c-0.19531-0.066407-0.41016-0.035157-0.57812 0.085937zm1.0078 1.4141 21.902 7.4805v1.1211l-21.902-7.4805zm-27.566-23.473c-0.15625-0.12109-0.36328-0.16016-0.55469-0.10938l-3.7891 1.0352c-0.27734 0.074218-0.46875 0.32812-0.46875 0.61719v3.7891c0 0.19922 0.09375 0.38672 0.25 0.50781 0.11328 0.085938 0.25 0.13281 0.38672 0.13281 0.054688 0 0.11328-0.007812 0.16797-0.023437l3.7891-1.0352c0.27734-0.074219 0.46875-0.32812 0.46875-0.61719v-3.7891c0-0.19922-0.09375-0.38672-0.25-0.50781zm-1.0273 3.8047-2.5117 0.6875v-2.4648l2.5117-0.6875zm-7.1016-1.8438-3.7891 1.0352c-0.27734 0.074219-0.46875 0.32812-0.46875 0.61719v3.7891c0 0.19922 0.09375 0.38672 0.25 0.50781 0.11328 0.085938 0.25 0.13281 0.38672 0.13281 0.054688 0 0.11328-0.007813 0.16797-0.023437l3.7891-1.0352c0.27734-0.074219 0.46875-0.32812 0.46875-0.61719v-3.7891c0-0.19922-0.09375-0.38672-0.25-0.50781-0.15625-0.12109-0.36328-0.16016-0.55469-0.10938zm-0.47266 3.9141-2.5117 0.6875v-2.4648l2.5117-0.6875zm8.0469 1.5898-3.7891 1.0352c-0.27734 0.074219-0.46875 0.32812-0.46875 0.61719v3.7891c0 0.19922 0.09375 0.38672 0.25 0.50781 0.11328 0.085937 0.25 0.13281 0.38672 0.13281 0.054688 0 0.11328-0.007812 0.16797-0.023437l3.7891-1.0352c0.27734-0.074219 0.46875-0.32813 0.46875-0.61719v-3.7891c0-0.19922-0.09375-0.38672-0.25-0.50781s-0.36328-0.16016-0.55469-0.10938zm-0.47266 3.918-2.5117 0.6875v-2.4648l2.5117-0.6875zm-7.1016-1.8477-3.7891 1.0352c-0.27734 0.074219-0.46875 0.32812-0.46875 0.61719v3.7891c0 0.19922 0.09375 0.38672 0.25 0.50781 0.11328 0.085938 0.25 0.13281 0.38672 0.13281 0.054688 0 0.11328-0.007813 0.16797-0.023438l3.7891-1.0352c0.27734-0.074219 0.46875-0.32812 0.46875-0.61719v-3.7891c0-0.19922-0.09375-0.38672-0.25-0.50781-0.15625-0.12109-0.36328-0.16016-0.55469-0.10938zm-0.47266 3.9141-2.5117 0.6875v-2.4648l2.5117-0.6875zm8.0469 1.5898-3.7891 1.0352c-0.27734 0.074219-0.46875 0.32812-0.46875 0.61719v3.7891c0 0.19922 0.09375 0.38672 0.25 0.50781 0.11328 0.085937 0.25 0.13281 0.38672 0.13281 0.054688 0 0.11328-0.007812 0.16797-0.023438l3.7891-1.0352c0.27734-0.074218 0.46875-0.32812 0.46875-0.61719v-3.7891c0-0.19922-0.09375-0.38672-0.25-0.50781s-0.36328-0.16016-0.55469-0.10938zm-0.47266 3.918-2.5117 0.6875v-2.4648l2.5117-0.68359v2.4648zm-7.1016-1.8477-3.7891 1.0352c-0.27734 0.074218-0.46875 0.32812-0.46875 0.61719v3.7891c0 0.19922 0.09375 0.38672 0.25 0.50781 0.11328 0.085938 0.25 0.13281 0.38672 0.13281 0.054688 0 0.11328-0.007812 0.16797-0.023437l3.7891-1.0352c0.27734-0.074219 0.46875-0.32812 0.46875-0.61719v-3.7891c0-0.19922-0.09375-0.38672-0.25-0.50781s-0.36328-0.16016-0.55469-0.10938zm-0.47266 3.9141-2.5117 0.6875v-2.4648l2.5117-0.6875zm8.0469 1.5898-3.7891 1.0352c-0.27734 0.074218-0.46875 0.32812-0.46875 0.61719v3.7891c0 0.19922 0.09375 0.38672 0.25 0.50781 0.11328 0.085938 0.25 0.13281 0.38672 0.13281 0.054688 0 0.11328-0.007813 0.16797-0.023438l3.7891-1.0352c0.27734-0.074219 0.46875-0.32812 0.46875-0.61719v-3.7891c0-0.19922-0.09375-0.38672-0.25-0.50781-0.15625-0.12109-0.36328-0.16016-0.55469-0.10937zm-0.47266 3.918-2.5117 0.6875v-2.4648l2.5117-0.6875zm-7.1016-1.8477-3.7891 1.0352c-0.27734 0.074219-0.46875 0.32812-0.46875 0.61719v3.7891c0 0.19922 0.09375 0.38672 0.25 0.50781 0.11328 0.085937 0.25 0.13281 0.38672 0.13281 0.054688 0 0.11328-0.007812 0.16797-0.023437l3.7891-1.0352c0.27734-0.074219 0.46875-0.32813 0.46875-0.61719v-3.7891c0-0.19922-0.09375-0.38672-0.25-0.50781s-0.36328-0.16016-0.55469-0.10938zm-0.47266 3.9141-2.5117 0.68359v-2.4648l2.5117-0.68359zm8.0469 1.5898-3.7891 1.0352c-0.27734 0.074219-0.46875 0.32813-0.46875 0.61719v3.7891c0 0.19922 0.09375 0.38672 0.25 0.50781 0.11328 0.085937 0.25 0.13281 0.38672 0.13281 0.054688 0 0.11328-0.007813 0.16797-0.023438l3.7891-1.0352c0.27734-0.074219 0.46875-0.32812 0.46875-0.61719v-3.7891c0-0.19922-0.09375-0.38672-0.25-0.50781-0.15625-0.12109-0.36328-0.16016-0.55469-0.10938zm-0.47266 3.918-2.5117 0.6875v-2.4648l2.5117-0.6875zm-7.1016-1.8477-3.7891 1.0352c-0.27734 0.074219-0.46875 0.32812-0.46875 0.61719v3.7891c0 0.19922 0.09375 0.38672 0.25 0.50781 0.11328 0.085937 0.25 0.13281 0.38672 0.13281 0.054688 0 0.11328-0.007812 0.16797-0.023438l3.7891-1.0352c0.27734-0.074218 0.46875-0.32812 0.46875-0.61719v-3.7891c0-0.19922-0.09375-0.38672-0.25-0.50781s-0.36328-0.16016-0.55469-0.10938zm-0.47266 3.9141-2.5117 0.6875v-2.4648l2.5117-0.6875z"/>
<text x="0.0" y="117.5" font-size="5.0" font-weight="bold" font-family="Arbeit Regular, Helvetica, Arial-Unicode, Arial, Sans-serif" fill="#000000">Created by Ishaq_hmad</text><text x="0.0" y="122.5" font-size="5.0" font-weight="bold" font-family="Arbeit Regular, Helvetica, Arial-Unicode, Arial, Sans-serif" fill="#000000">from Noun Project</text></svg>