<?xml version="1.0" standalone="no"?>
<!DOCTYPE svg PUBLIC "-//W3C//DTD SVG 20010904//EN"
 "http://www.w3.org/TR/2001/REC-SVG-20010904/DTD/svg10.dtd">
<svg version="1.0" xmlns="http://www.w3.org/2000/svg"
 width="512.000000pt" height="512.000000pt" viewBox="0 0 512.000000 512.000000"
 preserveAspectRatio="xMidYMid meet">

<g transform="translate(0.000000,512.000000) scale(0.100000,-0.100000)"
fill="#000000" stroke="none">
<path d="M2810 4948 c-162 -93 -299 -174 -304 -178 -4 -5 10 -41 32 -82 72
-129 32 -134 334 40 l264 152 643 -196 c354 -107 644 -194 646 -192 8 8 64
203 59 207 -4 4 -1308 402 -1359 415 -14 3 -116 -50 -315 -166z"/>
<path d="M2805 4555 c-165 -96 -301 -178 -303 -183 -1 -5 21 -49 50 -99 l53
-91 266 153 265 153 639 -194 c352 -107 642 -194 646 -194 7 0 70 202 65 208
-3 3 -1305 400 -1366 416 -8 3 -150 -74 -315 -169z"/>
<path d="M698 4163 c-167 -96 -305 -177 -307 -178 -3 -4 47 -98 89 -167 l16
-28 266 154 266 153 618 -188 c341 -104 631 -191 646 -194 26 -6 27 -4 58 95
17 56 30 104 27 106 -2 2 -294 92 -648 199 -354 108 -663 202 -686 209 l-41
14 -304 -175z"/>
<path d="M2803 4162 c-167 -97 -303 -179 -303 -183 0 -4 23 -48 52 -97 41 -72
55 -89 67 -82 9 4 129 73 266 152 l251 145 642 -195 c353 -107 644 -193 647
-190 6 6 65 201 62 204 -2 2 -1274 390 -1369 418 -7 2 -149 -75 -315 -172z"/>
<path d="M695 3770 c-159 -93 -294 -171 -300 -173 -7 -2 79 -171 100 -195 1
-1 120 66 264 149 211 121 268 150 289 146 15 -3 302 -89 638 -191 337 -102
617 -186 623 -186 10 0 77 197 69 205 -7 7 -1360 415 -1376 414 -9 0 -147 -76
-307 -169z"/>
<path d="M2798 3767 c-164 -94 -298 -175 -298 -180 0 -4 23 -48 52 -97 47 -81
54 -88 72 -78 12 6 129 73 262 149 132 77 247 139 254 139 8 0 296 -85 640
-190 344 -104 631 -190 637 -190 9 0 35 74 69 191 3 12 -124 54 -678 222 -376
114 -690 207 -698 207 -8 -1 -149 -78 -312 -173z"/>
<path d="M688 3377 c-163 -95 -297 -175 -298 -179 0 -6 96 -177 105 -186 2 -2
121 64 264 147 144 83 267 151 274 151 6 0 298 -88 647 -194 349 -106 636
-192 638 -191 5 4 63 207 60 210 -8 7 -1366 415 -1378 414 -8 0 -149 -78 -312
-172z"/>
<path d="M2798 3377 c-164 -94 -298 -175 -298 -180 0 -8 100 -187 105 -187 2
0 121 68 264 150 143 83 266 150 273 150 7 -1 299 -88 648 -194 l635 -194 26
84 c15 46 29 94 33 107 5 21 -18 29 -667 226 -370 113 -683 206 -697 208 -18
2 -114 -49 -322 -170z"/>
<path d="M701 2991 c-162 -94 -299 -175 -304 -180 -5 -5 11 -43 43 -97 29 -49
54 -91 56 -93 2 -2 121 64 265 148 144 83 265 151 269 151 4 0 295 -87 646
-194 352 -107 640 -193 641 -192 6 6 65 207 62 210 -6 4 -1342 409 -1364 413
-12 2 -130 -60 -314 -166z"/>
<path d="M2807 2991 c-158 -92 -293 -173 -299 -179 -7 -7 5 -36 42 -101 29
-50 54 -91 57 -91 2 0 121 68 264 150 142 83 262 150 266 150 7 0 1254 -377
1278 -386 12 -5 77 198 67 208 -9 8 -1361 418 -1376 417 -6 -1 -141 -76 -299
-168z"/>
<path d="M700 2599 c-162 -94 -299 -174 -303 -179 -9 -8 89 -190 102 -190 4 0
112 61 241 136 129 74 247 142 263 150 26 14 61 4 669 -180 353 -108 644 -194
646 -192 11 11 61 201 55 207 -7 6 -1362 419 -1373 419 -3 0 -138 -77 -300
-171z"/>
<path d="M2810 2600 c-162 -94 -299 -175 -304 -180 -13 -13 93 -193 111 -186
8 3 128 71 266 152 l252 145 635 -192 c349 -106 640 -194 646 -196 12 -4 77
199 66 208 -6 5 -1362 419 -1373 419 -2 0 -137 -77 -299 -170z"/>
<path d="M698 2207 c-164 -95 -300 -176 -304 -179 -7 -8 95 -188 106 -188 5 0
125 67 268 150 l259 150 642 -195 c353 -107 643 -195 646 -195 9 0 66 203 58
210 -7 6 -1318 406 -1363 416 -8 2 -149 -74 -312 -169z"/>
<path d="M2810 2208 c-162 -93 -299 -174 -304 -178 -4 -5 10 -41 32 -82 72
-129 32 -134 334 40 l264 152 643 -196 c354 -107 644 -194 646 -192 8 8 64
203 59 207 -4 4 -1308 402 -1359 415 -14 3 -116 -50 -315 -166z"/>
<path d="M696 1815 c-164 -96 -300 -176 -303 -179 -7 -7 97 -186 108 -186 6 0
126 67 268 149 l258 149 624 -189 c343 -104 634 -192 646 -195 20 -5 24 3 53
96 17 56 29 104 26 107 -4 4 -1381 425 -1381 422 0 0 -134 -79 -299 -174z"/>
<path d="M2805 1815 c-165 -96 -301 -178 -303 -183 -1 -5 21 -49 50 -99 l53
-91 266 153 265 153 639 -194 c352 -107 642 -194 646 -194 7 0 70 202 65 208
-3 3 -1305 400 -1366 416 -8 3 -150 -74 -315 -169z"/>
<path d="M698 1423 c-167 -96 -305 -177 -307 -178 -3 -4 47 -98 89 -167 l16
-28 266 154 266 153 618 -188 c341 -104 631 -191 646 -194 26 -6 27 -4 58 95
17 56 30 104 27 106 -2 2 -294 92 -648 199 -354 108 -663 202 -686 209 l-41
14 -304 -175z"/>
<path d="M2803 1422 c-167 -97 -303 -179 -303 -183 0 -4 23 -48 52 -97 41 -72
55 -89 67 -82 9 4 129 73 266 152 l251 145 642 -195 c353 -107 644 -193 647
-190 6 6 65 201 62 204 -2 2 -1274 390 -1369 418 -7 2 -149 -75 -315 -172z"/>
<path d="M695 1030 c-159 -93 -294 -171 -299 -173 -6 -2 4 -29 22 -60 l32 -57
0 -265 0 -265 -165 0 -165 0 0 -105 0 -105 2440 0 2440 0 0 105 0 105 -285 0
-285 0 0 189 c0 181 1 192 30 286 17 54 29 99 28 100 -5 5 -1332 406 -1359
412 -21 4 -88 -30 -325 -167 -165 -94 -301 -174 -304 -176 -2 -3 10 -31 28
-63 l32 -59 -2 -259 -3 -258 -117 -3 -118 -3 0 187 c0 180 1 189 31 286 17 54
29 101 27 103 -7 7 -1360 415 -1376 414 -9 0 -147 -76 -307 -169z m953 -446
c174 -41 325 -77 335 -80 16 -5 17 -19 15 -147 l-3 -142 -337 -3 -338 -2 0
225 c0 124 3 225 6 225 3 0 148 -34 322 -76z m2122 -3 l325 -78 3 -147 3 -146
-336 0 -335 0 0 225 c0 124 3 225 8 225 4 0 153 -36 332 -79z"/>
</g>
</svg>
