<?xml version="1.0" standalone="no"?>
<!DOCTYPE svg PUBLIC "-//W3C//DTD SVG 20010904//EN"
 "http://www.w3.org/TR/2001/REC-SVG-20010904/DTD/svg10.dtd">
<svg version="1.0" xmlns="http://www.w3.org/2000/svg"
 width="512.000000pt" height="512.000000pt" viewBox="0 0 512.000000 512.000000"
 preserveAspectRatio="xMidYMid meet">

<g transform="translate(0.000000,512.000000) scale(0.100000,-0.100000)"
fill="#000000" stroke="none">
<path d="M3264 5074 c-57 -20 -120 -77 -149 -134 l-24 -48 -158 -4 c-156 -4
-159 -5 -253 -43 l-95 -38 -198 -6 c-194 -6 -199 -7 -218 -30 -27 -34 -24 -77
8 -107 l26 -24 -115 -248 -114 -247 -67 -3 c-58 -3 -69 -6 -87 -29 -54 -69 8
-282 117 -404 174 -193 468 -229 687 -85 131 88 217 234 232 395 6 57 4 69
-14 91 -17 21 -31 26 -88 30 l-68 5 -113 240 c-61 132 -112 243 -113 246 0 3
33 9 73 12 48 4 113 21 186 47 110 39 116 40 246 40 132 0 133 0 139 -24 9
-36 90 -120 135 -141 l41 -18 0 -273 c0 -272 0 -273 23 -300 33 -37 81 -37
114 0 23 27 23 28 23 300 l0 274 33 13 c46 19 111 82 132 129 l18 40 134 0
c129 0 138 -1 228 -35 100 -38 175 -55 236 -55 22 0 39 -2 39 -4 0 -2 -51
-113 -113 -247 l-113 -244 -67 -3 c-58 -3 -69 -6 -87 -29 -24 -31 -26 -82 -5
-172 42 -175 183 -328 354 -382 133 -42 306 -24 426 46 143 83 246 245 261
413 6 58 4 70 -14 92 -17 21 -31 26 -88 30 l-68 5 -119 254 c-103 221 -117
258 -108 278 16 35 13 68 -8 94 -18 23 -26 24 -198 30 -178 6 -178 6 -273 44
-94 38 -97 39 -252 43 l-157 4 -30 53 c-69 122 -207 175 -337 129z m172 -175
c39 -36 50 -88 29 -133 -44 -93 -183 -87 -215 9 -16 49 -4 89 37 126 32 27 42
31 80 26 27 -3 54 -14 69 -28z m-1014 -567 l87 -187 -176 -3 c-97 -1 -177 -1
-179 1 -5 5 168 377 175 377 4 0 45 -84 93 -188z m2060 1 l87 -188 -176 -3
c-97 -1 -177 -1 -179 1 -5 5 169 377 176 377 3 0 45 -84 92 -187z m-1797 -375
c-30 -97 -128 -202 -223 -239 -128 -49 -275 -21 -378 73 -50 47 -90 107 -108
166 l-7 22 361 0 361 0 -6 -22z m2060 0 c-30 -97 -128 -202 -223 -239 -128
-49 -275 -21 -378 73 -50 47 -90 107 -108 166 l-7 22 361 0 361 0 -6 -22z"/>
<path d="M3297 3909 c-62 -15 -112 -45 -155 -94 -62 -70 -71 -111 -82 -350
-35 -751 -122 -1094 -307 -1213 -63 -40 -102 -54 -308 -108 -282 -74 -455
-155 -632 -296 -46 -38 -89 -68 -96 -68 -7 0 -34 9 -62 19 -27 10 -120 35
-206 54 -87 20 -180 47 -208 62 -154 77 -219 325 -255 960 -14 260 -20 284
-77 350 -119 135 -344 101 -426 -64 -16 -33 -18 -70 -17 -441 1 -515 21 -742
81 -935 46 -146 106 -241 288 -460 l95 -114 0 -107 0 -108 -128 -130 c-149
-152 -168 -188 -160 -305 6 -79 33 -136 89 -191 41 -40 129 -80 174 -80 23 0
25 -4 25 -50 l0 -50 -330 0 c-348 0 -369 -2 -389 -47 -17 -37 -13 -62 14 -88
l24 -25 2228 0 c1736 1 2232 3 2244 13 20 15 39 51 39 72 0 9 -13 30 -29 46
l-29 29 -341 0 -341 0 0 507 0 506 58 71 c145 176 206 256 249 330 124 211
161 470 166 1166 l2 345 -27 51 c-45 86 -115 133 -208 141 -111 10 -207 -43
-255 -141 -25 -50 -27 -68 -36 -253 -31 -684 -105 -945 -285 -1013 -29 -10
-115 -33 -191 -51 -335 -76 -462 -160 -526 -349 -21 -64 -22 -77 -25 -687 l-3
-623 -459 0 -459 0 -3 608 c-4 538 -6 614 -22 667 -23 81 -49 134 -91 182
l-35 41 42 35 c165 134 307 196 667 292 74 19 163 50 199 67 75 37 168 119
209 184 15 24 31 44 34 44 3 0 9 -22 12 -49 8 -64 47 -142 103 -201 215 -230
601 -122 670 188 14 61 15 86 6 140 -29 173 -157 303 -330 333 -108 19 -244
-20 -319 -91 -18 -16 -34 -30 -36 -30 -2 0 2 26 9 58 36 152 68 460 83 799 8
161 13 208 27 231 49 84 178 85 228 2 14 -25 16 -78 16 -462 0 -423 1 -435 20
-456 26 -28 79 -29 111 -3 l24 19 3 443 c3 498 3 501 -69 583 -68 77 -189 118
-282 95z m-2513 -791 l33 -33 7 -165 c35 -829 143 -1108 461 -1193 33 -9 105
-26 160 -38 168 -36 261 -74 321 -133 90 -88 87 -66 92 -764 l3 -602 -385 0
-386 0 0 531 c0 383 -3 536 -12 552 -6 12 -59 81 -118 152 -149 182 -163 202
-203 275 -101 185 -137 479 -137 1113 l0 279 29 29 c42 41 92 40 135 -3z
m3518 3 l33 -30 -3 -338 c-5 -711 -42 -936 -186 -1136 -24 -34 -96 -125 -159
-201 -67 -82 -118 -152 -121 -169 -3 -16 -6 -261 -6 -543 l0 -514 -380 0 -381
0 3 613 c3 568 5 615 22 660 40 105 135 166 331 213 61 14 146 35 190 45 295
71 404 265 460 822 8 81 18 225 21 320 3 94 10 189 15 209 20 77 102 102 161
49z m-773 -581 c170 -87 167 -337 -5 -421 -136 -65 -302 15 -333 161 -42 194
162 351 338 260z m-2599 -1930 c0 -178 -1 -181 -67 -140 -54 33 -77 102 -54
163 8 21 107 137 117 137 2 0 4 -72 4 -160z"/>
<path d="M2300 3149 c-136 -23 -272 -127 -330 -252 -104 -221 -6 -497 214
-601 343 -162 726 153 631 519 -60 228 -282 373 -515 334z m207 -185 c57 -27
101 -72 135 -137 34 -64 32 -184 -4 -252 -55 -105 -142 -158 -259 -159 -65 -1
-84 3 -134 29 -172 88 -211 320 -77 458 91 95 219 118 339 61z"/>
<path d="M1445 2716 c-116 -28 -222 -115 -273 -224 -24 -50 -27 -69 -27 -162
0 -95 3 -111 28 -162 41 -83 107 -152 181 -188 205 -101 442 -18 539 188 29
61 32 76 32 163 0 90 -2 99 -38 171 -56 114 -138 180 -264 213 -67 18 -109 18
-178 1z m193 -175 c140 -71 174 -248 70 -365 -142 -162 -408 -59 -408 157 0
173 184 286 338 208z"/>
</g>
</svg>
