<?xml version="1.0" standalone="no"?>
<!DOCTYPE svg PUBLIC "-//W3C//DTD SVG 20010904//EN"
 "http://www.w3.org/TR/2001/REC-SVG-20010904/DTD/svg10.dtd">
<svg version="1.0" xmlns="http://www.w3.org/2000/svg"
 width="512.000000pt" height="512.000000pt" viewBox="0 0 512.000000 512.000000"
 preserveAspectRatio="xMidYMid meet">

<g transform="translate(0.000000,512.000000) scale(0.100000,-0.100000)"
fill="#000000" stroke="none">
<path d="M1492 4674 c-313 -68 -571 -317 -658 -634 -26 -92 -26 -338 0 -430
89 -324 348 -569 673 -636 125 -26 311 -15 433 24 139 46 235 104 344 210 393
382 331 1033 -128 1340 -90 60 -197 105 -298 126 -94 19 -278 19 -366 0z m362
-164 c200 -51 362 -184 456 -375 54 -110 71 -180 72 -305 4 -533 -552 -874
-1031 -633 -90 45 -214 158 -269 246 -179 285 -140 648 97 881 100 99 194 153
336 191 77 21 248 19 339 -5z"/>
<path d="M3247 3680 c-21 -17 -36 -50 -68 -155 l-42 -134 -81 -26 c-45 -15
-123 -47 -173 -71 l-92 -44 -135 67 c-125 62 -135 66 -164 54 -16 -7 -96 -79
-176 -161 -117 -119 -146 -153 -146 -175 0 -16 20 -68 45 -116 25 -48 45 -90
45 -93 0 -3 -280 -6 -622 -8 l-623 -4 -97 -26 c-134 -37 -255 -88 -356 -150
-101 -62 -288 -241 -351 -335 -60 -91 -125 -225 -156 -323 -52 -167 -56 -232
-53 -828 3 -541 3 -547 25 -588 25 -48 83 -101 129 -120 49 -21 2988 -21 3037
0 28 11 36 11 52 0 27 -20 453 -20 480 0 11 8 37 69 64 151 l46 138 85 29 c47
15 124 47 172 70 l88 41 119 -61 c77 -41 131 -62 153 -62 30 0 49 16 191 158
115 116 157 165 157 182 0 14 -29 82 -65 152 l-65 127 41 82 c23 45 55 122 73
172 l31 90 135 43 c89 29 141 51 152 65 16 19 18 46 18 240 0 269 11 251 -176
309 l-131 40 -28 85 c-15 46 -46 123 -70 172 l-43 87 64 128 c35 70 64 138 64
150 0 26 -303 336 -336 344 -14 4 -67 -17 -153 -61 l-133 -66 -91 44 c-51 25
-128 57 -172 71 l-81 26 -44 136 c-25 74 -53 143 -63 152 -17 15 -48 17 -236
20 -208 3 -218 2 -244 -18z m411 -269 c23 -70 51 -136 60 -144 10 -9 58 -28
108 -42 49 -14 143 -53 209 -86 66 -32 131 -59 144 -59 13 0 76 27 139 61
l116 60 94 -94 94 -94 -61 -121 c-34 -67 -61 -130 -61 -141 0 -10 24 -65 54
-123 30 -57 69 -151 87 -209 18 -57 39 -112 47 -121 8 -10 73 -37 144 -60
l129 -43 -3 -134 -3 -135 -130 -42 c-72 -24 -135 -51 -142 -61 -8 -9 -18 -36
-23 -58 -20 -80 -73 -212 -116 -289 -24 -43 -44 -90 -44 -104 0 -14 27 -77 61
-140 l60 -116 -95 -95 -96 -96 -123 63 c-68 34 -128 62 -134 62 -6 0 -66 -28
-134 -63 -69 -35 -166 -75 -218 -90 -52 -15 -100 -32 -107 -39 -6 -7 -31 -70
-54 -141 l-42 -128 -134 3 c-74 2 -134 6 -134 11 0 4 0 142 0 306 l0 299 123
-1 c153 0 265 25 392 88 213 107 380 306 445 535 28 97 37 264 20 367 -57 355
-343 646 -695 708 -111 19 -189 19 -301 0 -165 -29 -330 -114 -449 -231 l-57
-57 -37 22 c-62 38 -214 108 -271 126 l-55 17 -60 114 -60 114 94 94 94 95
118 -60 c65 -32 129 -59 141 -59 13 0 77 27 143 60 66 33 161 71 210 85 50 14
97 33 106 43 9 9 36 74 59 145 l42 127 132 0 132 0 42 -129z m38 -686 c309
-103 498 -378 482 -699 -10 -186 -84 -345 -223 -474 -134 -126 -288 -185 -476
-185 -59 0 -111 3 -118 7 -7 5 -11 65 -11 190 0 205 -13 303 -58 436 -57 167
-147 317 -272 453 l-63 68 34 35 c81 84 220 159 354 190 93 21 253 12 351 -21z
m-2270 -102 c-3 -21 -24 -245 -48 -499 l-42 -460 134 -240 c74 -131 145 -249
157 -262 28 -28 65 -28 97 0 14 13 85 129 158 258 122 217 132 239 130 282 -1
26 -20 239 -42 473 -22 234 -40 439 -40 455 l0 30 159 0 c94 0 192 -6 242 -15
427 -74 763 -406 845 -833 11 -58 14 -193 14 -623 l0 -550 -25 -24 -24 -25
-286 0 -285 0 0 310 c0 297 -1 311 -20 330 -26 26 -80 26 -111 1 l-24 -19 -3
-311 -3 -311 -734 0 -735 0 0 304 c0 292 -1 304 -21 330 -29 37 -89 37 -118 0
-20 -26 -21 -38 -21 -330 l0 -304 -283 0 c-271 0 -284 1 -305 20 -12 11 -24
31 -27 43 -4 13 -5 273 -2 578 3 525 4 558 24 634 83 312 296 571 577 700 150
70 274 93 499 94 l169 1 -6 -37z m383 -448 l44 -480 -82 -145 c-46 -80 -86
-148 -90 -153 -4 -4 -46 62 -94 147 l-87 154 40 429 c22 235 42 452 46 481 l6
53 86 -3 87 -3 44 -480z"/>
</g>
</svg>
