<?xml version="1.0" standalone="no"?>
<!DOCTYPE svg PUBLIC "-//W3C//DTD SVG 20010904//EN"
 "http://www.w3.org/TR/2001/REC-SVG-20010904/DTD/svg10.dtd">
<svg version="1.0" xmlns="http://www.w3.org/2000/svg"
 width="512.000000pt" height="512.000000pt" viewBox="0 0 512.000000 512.000000"
 preserveAspectRatio="xMidYMid meet">

<g transform="translate(0.000000,512.000000) scale(0.100000,-0.100000)"
fill="#000000" stroke="none">
<path d="M1684 4955 c-203 -44 -381 -222 -423 -423 -8 -37 -11 -599 -11 -1902
l0 -1850 -478 0 c-549 0 -512 7 -512 -91 1 -220 172 -434 405 -506 57 -17 131
-18 1505 -18 1374 0 1448 1 1505 18 192 59 342 210 389 393 14 55 16 257 16
1918 l0 1856 475 0 476 0 24 24 c21 22 24 31 19 78 -26 253 -202 452 -442 503
-96 21 -2854 21 -2948 0z m2432 -166 c-59 -64 -101 -136 -132 -229 -18 -53
-19 -140 -24 -2005 l-5 -1950 -32 -68 c-80 -169 -269 -273 -450 -247 -201 28
-345 174 -374 377 -6 43 -18 86 -27 96 -14 16 -68 17 -859 17 l-843 0 2 1873
3 1872 32 68 c57 121 169 212 298 243 38 9 342 13 1259 13 l1208 1 -56 -61z
m502 46 c111 -26 197 -86 264 -182 28 -41 68 -141 68 -170 0 -11 -77 -13 -430
-13 -353 0 -430 2 -430 13 0 29 40 129 68 170 65 94 153 156 260 181 75 19
124 19 200 1z m-1630 -4234 c18 -84 75 -192 139 -261 l55 -60 -1183 0 c-768 0
-1207 4 -1249 11 -93 14 -181 58 -246 123 -55 55 -105 146 -119 214 l-7 32
1299 0 1299 0 12 -59z"/>
<path d="M1912 4483 c-26 -24 -252 -698 -252 -754 0 -77 63 -159 155 -201 73
-33 200 -32 269 2 72 35 123 92 142 157 l16 55 -106 312 c-58 171 -106 314
-106 319 0 4 128 7 285 7 l285 0 0 -520 0 -520 -73 0 c-43 0 -80 -5 -89 -12
-16 -13 -128 -255 -128 -277 0 -6 9 -20 20 -31 19 -19 33 -20 328 -20 323 0
333 1 346 45 6 22 -104 273 -127 287 -6 4 -45 8 -84 8 l-73 0 0 520 0 520 285
0 c157 0 285 -1 285 -3 0 -1 -47 -144 -105 -317 -115 -343 -116 -347 -69 -427
68 -118 248 -166 390 -104 90 40 153 123 154 202 0 49 -234 740 -256 756 -14
10 -167 13 -745 13 -678 0 -728 -1 -747 -17z m112 -472 c36 -106 66 -197 66
-202 0 -5 -65 -9 -145 -9 -80 0 -145 3 -145 6 0 3 32 101 72 216 43 127 74
204 79 196 4 -7 37 -100 73 -207z m1422 17 c37 -112 69 -209 72 -215 3 -10
-29 -13 -142 -13 -80 0 -146 4 -146 8 0 6 118 365 135 410 2 6 6 12 9 12 2 0
35 -91 72 -202z m-1376 -368 c-66 -52 -180 -52 -249 2 -23 18 -21 18 125 18
l149 0 -25 -20z m1434 9 c-12 -20 -89 -49 -132 -49 -44 0 -93 16 -127 44 -18
14 -9 15 123 16 102 0 141 -3 136 -11z m-676 -494 c12 -25 22 -48 22 -50 0 -3
-85 -5 -190 -5 -104 0 -190 2 -190 4 0 2 9 24 20 50 l21 46 147 0 148 0 22
-45z"/>
<path d="M1899 2646 c-16 -35 -3 -75 27 -86 41 -16 1453 -13 1484 3 18 9 26
22 28 45 7 66 55 62 -774 62 l-754 0 -11 -24z"/>
<path d="M3055 2317 c-42 -19 -82 -68 -135 -164 l-45 -81 -131 -4 c-120 -3
-134 -5 -167 -28 -55 -38 -80 -90 -75 -158 3 -47 14 -74 61 -154 l57 -96 -60
-104 c-54 -92 -60 -109 -60 -159 0 -42 6 -65 23 -89 48 -72 97 -89 252 -90
l100 0 55 -96 c61 -107 92 -138 151 -154 95 -26 154 11 231 145 l58 100 128 6
c143 7 175 17 219 76 24 31 28 45 28 102 0 62 -4 72 -58 164 l-58 97 61 108
c46 83 60 117 60 149 0 78 -34 131 -105 164 -31 15 -65 19 -155 19 l-116 0
-56 97 c-68 121 -107 155 -180 160 -31 2 -66 -2 -83 -10z m110 -129 c9 -13 44
-70 78 -128 l62 -105 145 -3 c210 -4 216 -13 115 -191 -36 -62 -65 -121 -65
-130 0 -9 30 -68 66 -131 99 -174 89 -190 -122 -190 -153 0 -134 12 -220 -138
-32 -57 -67 -108 -78 -114 -33 -18 -61 7 -116 104 -30 51 -62 105 -72 121
l-19 27 -132 0 c-214 0 -225 18 -123 193 36 63 66 120 66 128 0 8 -29 65 -65
127 -103 177 -95 192 100 192 73 0 140 3 149 6 9 3 39 47 67 98 72 127 95 156
124 156 13 0 31 -10 40 -22z"/>
<path d="M3188 1703 l-108 -108 -63 63 c-67 67 -100 78 -130 44 -34 -38 -22
-63 77 -160 64 -63 101 -92 117 -92 17 0 62 39 161 138 145 145 159 169 120
205 -38 35 -62 22 -174 -90z"/>
<path d="M1920 2137 c-31 -15 -39 -66 -15 -91 14 -14 48 -16 260 -16 271 0
279 2 273 64 -5 51 -27 56 -273 56 -157 0 -227 -4 -245 -13z"/>
<path d="M1912 1604 c-26 -18 -30 -65 -6 -88 13 -14 51 -16 259 -16 268 0 275
2 275 60 0 56 -19 60 -275 60 -192 0 -234 -3 -253 -16z"/>
</g>
</svg>
