<?xml version="1.0" standalone="no"?>
<!DOCTYPE svg PUBLIC "-//W3C//DTD SVG 20010904//EN"
 "http://www.w3.org/TR/2001/REC-SVG-20010904/DTD/svg10.dtd">
<svg version="1.0" xmlns="http://www.w3.org/2000/svg"
 width="512.000000pt" height="512.000000pt" viewBox="0 0 512.000000 512.000000"
 preserveAspectRatio="xMidYMid meet">

<g transform="translate(0.000000,512.000000) scale(0.100000,-0.100000)"
fill="#000000" stroke="none">
<path d="M982 4940 c-186 -49 -330 -191 -386 -379 -14 -48 -16 -130 -16 -626
0 -536 1 -577 20 -649 46 -180 156 -335 310 -437 l25 -16 -31 -94 -30 -94
-140 -6 c-230 -10 -360 -66 -514 -219 -97 -96 -153 -192 -192 -326 -22 -77
-23 -91 -23 -487 l0 -409 24 -19 c22 -18 43 -19 327 -19 l304 0 0 -471 0 -471
29 -29 c31 -31 59 -36 94 -17 48 25 46 8 47 675 l0 632 -24 27 c-33 39 -89 39
-122 0 -21 -23 -24 -38 -24 -102 l0 -74 -246 0 -246 0 4 338 c5 370 8 385 71
507 44 82 155 192 237 232 95 48 168 63 296 63 l112 0 36 -49 c84 -115 236
-198 369 -202 87 -3 130 38 113 106 -9 35 -44 55 -114 65 -95 13 -187 68 -237
140 l-27 39 32 95 c17 53 33 96 35 96 2 0 34 -7 72 -16 89 -21 262 -14 349 14
l61 19 39 -126 c42 -137 64 -171 112 -171 36 0 78 31 86 64 3 14 -11 79 -38
167 -39 131 -42 145 -27 157 47 37 146 143 177 189 92 139 124 259 124 463 0
134 -2 150 -21 174 -15 19 -30 26 -54 26 -82 0 -95 -28 -95 -197 0 -199 -41
-316 -151 -437 -107 -116 -228 -174 -384 -183 -220 -13 -427 102 -528 294 -61
116 -67 156 -67 435 l0 247 503 4 c561 4 549 2 702 78 185 90 318 247 385 454
20 61 24 96 28 277 l4 208 -30 30 -30 30 -629 -1 c-586 0 -633 -1 -701 -19z
m1216 -287 c-6 -161 -25 -235 -87 -331 -74 -113 -174 -193 -302 -240 l-74 -27
-492 -3 -493 -3 0 220 c0 199 2 226 21 276 28 74 73 132 139 177 97 66 101 67
729 67 l563 1 -4 -137z"/>
<path d="M3589 4931 c-411 -89 -735 -418 -819 -829 -19 -96 -20 -135 -20 -862
l0 -763 -37 6 c-156 24 -275 16 -404 -28 -421 -143 -641 -601 -489 -1017 16
-43 45 -106 66 -140 47 -77 147 -184 219 -234 30 -20 55 -40 55 -44 0 -3 -13
-44 -28 -90 l-29 -85 -139 -6 c-157 -6 -215 -22 -308 -84 -74 -49 -129 -113
-171 -199 -41 -83 -55 -149 -55 -258 0 -75 2 -81 29 -109 36 -36 70 -37 108
-5 26 23 28 30 34 128 9 161 61 254 181 319 62 33 66 34 198 37 l135 3 25 -42
c62 -103 211 -198 342 -219 102 -16 147 9 148 81 0 51 -30 74 -114 88 -109 19
-199 76 -241 154 -18 33 -17 35 10 118 15 46 31 88 35 92 4 5 42 1 83 -7 98
-20 215 -20 317 0 45 9 82 15 84 13 1 -2 19 -56 39 -120 21 -67 45 -123 57
-134 32 -29 87 -25 116 9 31 35 30 49 -10 175 -19 58 -37 115 -40 127 -5 17 4
27 48 58 123 85 233 227 284 370 128 354 -2 741 -316 939 l-63 40 3 816 c3
806 4 817 25 894 86 302 325 542 628 629 68 19 103 23 235 23 132 0 167 -4
235 -23 303 -87 543 -328 627 -629 21 -74 22 -103 28 -611 l5 -534 28 -24 c15
-13 37 -24 48 -24 28 0 75 26 83 45 3 9 6 244 6 522 0 468 -1 512 -20 605 -81
397 -380 713 -778 820 -113 30 -364 35 -483 9z m-838 -2637 c138 -44 265 -145
342 -275 241 -408 -60 -929 -538 -929 -347 0 -636 311 -611 656 21 294 238
529 530 574 75 12 191 1 277 -26z"/>
<path d="M4185 4049 c-275 -89 -589 -143 -922 -156 -230 -9 -213 14 -213 -280
0 -193 3 -241 20 -311 21 -86 72 -199 117 -262 51 -69 160 -171 220 -205 2 -1
-15 -55 -37 -120 -22 -66 -40 -132 -40 -147 0 -41 44 -123 98 -181 93 -100
233 -167 349 -167 67 0 103 29 103 83 0 50 -36 78 -111 89 -104 14 -180 59
-240 140 l-27 39 30 92 c17 51 32 93 33 95 1 1 44 -5 96 -14 110 -19 219 -14
322 15 49 13 70 15 73 7 2 -6 19 -63 38 -126 37 -123 63 -160 112 -160 31 0
84 50 84 80 0 11 -19 83 -42 160 l-42 139 30 22 c91 69 189 197 231 300 54
133 58 166 58 454 0 259 -1 272 -22 311 -60 112 -176 150 -318 103z m161 -174
c24 -36 16 -473 -10 -555 -77 -240 -269 -397 -511 -416 -220 -18 -446 114
-543 317 -53 111 -62 161 -62 343 l0 154 118 6 c159 10 274 22 422 47 127 21
392 85 465 113 63 23 102 20 121 -9z"/>
<path d="M4569 2571 c-55 -55 -37 -107 54 -152 125 -62 209 -145 268 -264 43
-87 59 -179 59 -338 l0 -139 30 -30 c26 -25 36 -29 63 -24 18 3 43 18 56 33
23 26 23 29 18 202 -5 199 -16 253 -76 376 -71 144 -185 259 -331 332 -80 41
-103 41 -141 4z"/>
<path d="M4344 1530 c-56 -23 -54 -1 -54 -685 1 -665 -1 -648 47 -673 35 -19
63 -14 94 17 l29 29 0 471 0 471 245 0 245 0 0 -471 0 -471 29 -29 c18 -17 40
-29 56 -29 16 0 38 12 56 29 l29 29 0 526 0 525 -24 28 -24 28 -305 3 -305 3
-4 79 c-2 63 -7 84 -23 99 -25 24 -63 33 -91 21z"/>
<path d="M33 926 l-28 -24 -3 -334 c-2 -358 -1 -369 49 -397 30 -17 71 -9 99
19 19 19 20 35 20 365 l0 346 -25 24 c-31 32 -75 32 -112 1z"/>
<path d="M3335 789 c-32 -18 -45 -40 -45 -76 0 -38 18 -59 93 -110 89 -61 137
-169 137 -306 0 -74 2 -80 29 -108 38 -38 74 -38 112 0 28 28 29 33 29 118 0
192 -80 351 -224 447 -62 41 -102 52 -131 35z"/>
</g>
</svg>
