<svg xmlns="http://www.w3.org/2000/svg" version="1.1" viewBox="-5.0 -10.0 110.0 135.0">
 <path d="m58.34 23.012c-4.3047 2.3008-8.6172 4.8047-12.898 7.2188-0.46094 0.25781-0.64062 0.91797-0.375 1.375l2.5977 4.4062c0.27734 0.47656 0.98828 0.62891 1.4414 0.3125l0.8125-0.5625 1.6289 2.7812-27.641 16.34c-2.3008 1.5195-3.7305 3.5664-2.3789 6.0312 1.6562 2.5781 4.2148 2.2383 6.3555 1.0312 9.2422-5.4805 18.512-10.938 27.766-16.402l1.5664 2.625-0.9375 0.59375c-0.42578 0.27734-0.57031 0.90625-0.3125 1.3438l2.5977 4.4062c0.26953 0.43359 0.90234 0.59375 1.3477 0.34375l12.586-7.0938c0.46094-0.25781 0.64062-0.91797 0.375-1.375l-2.5977-4.4062c-0.25781-0.44531-0.89453-0.62109-1.3477-0.375l-0.9375 0.53125-1.6914-2.875c0.48438-0.28125 0.96875-0.58594 1.4414-0.875 1.6055-1.3164 1.3477-3.5312 0.46875-5.125-1.0273-1.9141-2.5703-2.8203-4.5391-1.875-0.47656 0.30859-1.0547 0.63672-1.5039 0.90625l-1.5039-2.5312 0.90625-0.46875c0.48828-0.24609 0.6875-0.9375 0.40625-1.4062l-2.5977-4.4062c-0.20703-0.34375-0.63672-0.53906-1.0312-0.46875zm-0.1875 2.3438 1.5664 2.625c-3.9922 2.4727-7.3164 3.7305-10.863 6.0938l-1.5352-2.5938zm0.75 5.3438 7.2617 12.34-7.2305 4.0625-7.293-12.371zm7.543 3.5312c0.53125 0.9375 0.75781 1.9688 0.21875 2.4688-0.40625 0.26172-0.95703 0.57422-1.4102 0.84375l-2.0977-3.5312c0.52344-0.30078 1.0508-0.625 1.5664-0.9375 0.80469-0.33203 1.4375 0.50391 1.7227 1.1562zm-13.867 6.0312 2.0664 3.5312-27.766 16.402c-1.6758 1.0195-2.6602 0.88281-3.6016-0.28125-0.88672-1.6172 0.51953-2.5039 1.6289-3.3125zm16.434 3.5625 1.5977 2.6875-10.832 6.125-1.5977-2.7188c3.8867-2.5352 7.1836-4.0273 10.832-6.0938zm-17.062 19.184c-1.6133 0-3.0195 0.27344-3.9141 1.3438-0.89062 1.0703-1.0938 2.5703-1.0938 4.6562 0 0.52344 0.47656 1 1 1h28.051c0.52344 0 1-0.47656 1-1 0-2.082-0.22266-3.5859-1.1289-4.6562-0.90234-1.0703-2.3008-1.3438-3.9453-1.3438zm0 2h19.973c1.4258 0 2.0469 0.19531 2.4102 0.625 0.28125 0.33594 0.47266 1.1875 0.5625 2.375h-25.859c0.089844-1.1914 0.28516-2.0391 0.5625-2.375 0.35938-0.42969 0.95703-0.625 2.3477-0.625zm-6.1992 6c-0.46094 0.089844-0.82031 0.53125-0.8125 1v4c0 0.52344 0.47656 1 1 1h32.055c0.52344 0 1-0.47656 1-1v-4c0-0.52344-0.47656-1-1-1-10.746-0.019531-21.512 0.050782-32.242 0zm1.1914 2c8.7656 0.039063 25.426 0 30.051 0v2h-30.051z"/>
<text x="0.0" y="117.5" font-size="5.0" font-weight="bold" font-family="Arbeit Regular, Helvetica, Arial-Unicode, Arial, Sans-serif" fill="#000000">Created by zidney</text><text x="0.0" y="122.5" font-size="5.0" font-weight="bold" font-family="Arbeit Regular, Helvetica, Arial-Unicode, Arial, Sans-serif" fill="#000000">from Noun Project</text></svg>